name Walk2.mot
datacolumns 19
datarows 30
range 1.58100000 1.61000000
endheader

                time	   L_ground_force_vx	   L_ground_force_vy	   L_ground_force_vz	   L_ground_force_px	   L_ground_force_py	   L_ground_force_pz	   R_ground_force_vx	   R_ground_force_vy	   R_ground_force_vz	   R_ground_force_px	   R_ground_force_py	   R_ground_force_pz	   L_ground_torque_x	   L_ground_torque_y	   L_ground_torque_z	   R_ground_torque_x	   R_ground_torque_y	   R_ground_torque_z	
          1.58100000	          0.02565617	          0.06350443	         -0.00528018	         -0.00009321	          0.00000000	         -0.00000839	        -28.76289388	        437.67439211	        -29.58095271	          0.55703966	          0.00000000	          0.06103127	          0.00000000	         -0.00011707	          0.00000000	          0.00000000	          1.95851229	          0.00000000	
          1.58200000	          0.02369189	          0.05809005	         -0.00484346	         -0.00008934	          0.00000000	         -0.00000783	        -28.51936816	        436.56852346	        -29.19609094	          0.55771921	          0.00000000	          0.06100005	          0.00000000	         -0.00011496	          0.00000000	          0.00000000	          1.91517272	          0.00000000	
          1.58300000	          0.02180510	          0.05291651	         -0.00442557	         -0.00008546	          0.00000000	         -0.00000730	        -28.27107316	        435.51985578	        -28.81431906	          0.55837720	          0.00000000	          0.06096750	          0.00000000	         -0.00011258	          0.00000000	          0.00000000	          1.87167551	          0.00000000	
          1.58400000	          0.01999633	          0.04798290	         -0.00402649	         -0.00008159	          0.00000000	         -0.00000678	        -28.01788656	        434.52706254	        -28.43596162	          0.55901369	          0.00000000	          0.06093371	          0.00000000	         -0.00010999	          0.00000000	          0.00000000	          1.82797552	          0.00000000	
          1.58500000	          0.01826579	          0.04328744	         -0.00364613	         -0.00007773	          0.00000000	         -0.00000628	        -27.75969593	        433.58874407	        -28.06133604	          0.55962876	          0.00000000	          0.06089878	          0.00000000	         -0.00010720	          0.00000000	          0.00000000	          1.78402855	          0.00000000	
          1.58600000	          0.01661337	          0.03882763	         -0.00328432	         -0.00007392	          0.00000000	         -0.00000580	        -27.49639919	        432.70343447	        -27.69075153	          0.56022252	          0.00000000	          0.06086281	          0.00000000	         -0.00010424	          0.00000000	          0.00000000	          1.73979144	          0.00000000	
          1.58700000	          0.01503866	          0.03460030	         -0.00294087	         -0.00007015	          0.00000000	         -0.00000533	        -27.22790534	        431.86960892	        -27.32450821	          0.56079513	          0.00000000	          0.06082591	          0.00000000	         -0.00010114	          0.00000000	          0.00000000	          1.69522230	          0.00000000	
          1.58800000	          0.01354101	          0.03060164	         -0.00261551	         -0.00006643	          0.00000000	         -0.00000489	        -26.95413517	        431.08569123	        -26.96289640	          0.56134678	          0.00000000	          0.06078815	          0.00000000	         -0.00009792	          0.00000000	          0.00000000	          1.65028073	          0.00000000	
          1.58900000	          0.01211954	          0.02682734	         -0.00230793	         -0.00006278	          0.00000000	         -0.00000446	        -26.67502200	        430.35006146	        -26.60619595	          0.56187768	          0.00000000	          0.06074965	          0.00000000	         -0.00009461	          0.00000000	          0.00000000	          1.60492811	          0.00000000	
          1.59000000	          0.01077312	          0.02327256	         -0.00201778	         -0.00005920	          0.00000000	         -0.00000406	        -26.39051233	        429.66106359	        -26.25467581	          0.56238809	          0.00000000	          0.06071050	          0.00000000	         -0.00009121	          0.00000000	          0.00000000	          1.55912792	          0.00000000	
          1.59100000	          0.00950047	          0.01993208	         -0.00174467	         -0.00005570	          0.00000000	         -0.00000367	        -26.10056615	        429.01701327	        -25.90859375	          0.56287829	          0.00000000	          0.06067079	          0.00000000	         -0.00008777	          0.00000000	          0.00000000	          1.51284604	          0.00000000	
          1.59200000	          0.00830013	          0.01680031	         -0.00148819	         -0.00005229	          0.00000000	         -0.00000331	        -25.80515703	        428.41620547	        -25.56819614	          0.56334860	          0.00000000	          0.06063063	          0.00000000	         -0.00008428	          0.00000000	          0.00000000	          1.46605097	          0.00000000	
          1.59300000	          0.00717049	          0.01387133	         -0.00124790	         -0.00004897	          0.00000000	         -0.00000296	        -25.50427168	        427.85692208	        -25.23371782	          0.56379934	          0.00000000	          0.06059012	          0.00000000	         -0.00008077	          0.00000000	          0.00000000	          1.41871390	          0.00000000	
          1.59400000	          0.00610979	          0.01113897	         -0.00102332	         -0.00004575	          0.00000000	         -0.00000263	        -25.19790917	        427.33743935	        -24.90538184	          0.56423088	          0.00000000	          0.06054935	          0.00000000	         -0.00007726	          0.00000000	          0.00000000	          1.37080863	          0.00000000	
          1.59500000	          0.00511619	          0.00859683	         -0.00081397	         -0.00004263	          0.00000000	         -0.00000232	        -24.88607981	        426.85603516	        -24.58339917	          0.56464359	          0.00000000	          0.06050841	          0.00000000	         -0.00007375	          0.00000000	          0.00000000	          1.32231139	          0.00000000	
          1.59600000	          0.00418774	          0.00623835	         -0.00061934	         -0.00003962	          0.00000000	         -0.00000202	        -24.56880400	        426.41099604	        -24.26796844	          0.56503790	          0.00000000	          0.06046741	          0.00000000	         -0.00007026	          0.00000000	          0.00000000	          1.27320063	          0.00000000	
          1.59700000	          0.00332241	          0.00405682	         -0.00043892	         -0.00003671	          0.00000000	         -0.00000175	        -24.24611156	        426.00062401	        -23.95927610	          0.56541421	          0.00000000	          0.06042642	          0.00000000	         -0.00006680	          0.00000000	          0.00000000	          1.22345676	          0.00000000	
          1.59800000	          0.00251809	          0.00204545	         -0.00027218	         -0.00003391	          0.00000000	         -0.00000149	        -23.91804159	        425.62324329	        -23.65749695	          0.56577298	          0.00000000	          0.06038553	          0.00000000	         -0.00006339	          0.00000000	          0.00000000	          1.17306198	          0.00000000	
          1.59900000	          0.00177265	          0.00019736	         -0.00011859	         -0.00003121	          0.00000000	         -0.00000124	        -23.58464311	        425.27720743	        -23.36279510	          0.56611468	          0.00000000	          0.06034481	          0.00000000	         -0.00006002	          0.00000000	          0.00000000	          1.12200002	          0.00000000	
          1.60000000	          0.00108389	         -0.00149434	          0.00002239	         -0.00002864	          0.00000000	         -0.00000101	        -23.24597609	        424.96090703	        -23.07532537	          0.56643977	          0.00000000	          0.06030433	          0.00000000	         -0.00005672	          0.00000000	          0.00000000	          1.07025606	          0.00000000	
          1.60100000	          0.00044959	         -0.00303656	          0.00015129	         -0.00002617	          0.00000000	         -0.00000080	        -22.90211257	        424.67277775	        -22.79523468	          0.56674875	          0.00000000	          0.06026416	          0.00000000	         -0.00005348	          0.00000000	          0.00000000	          1.01781667	          0.00000000	
          1.60200000	         -0.00013248	         -0.00443617	          0.00026867	         -0.00002381	          0.00000000	         -0.00000061	        -22.55313753	        424.41130773	        -22.52266341	          0.56704211	          0.00000000	          0.06022437	          0.00000000	         -0.00005031	          0.00000000	          0.00000000	          0.96466995	          0.00000000	
          1.60300000	         -0.00066455	         -0.00570003	          0.00037505	         -0.00002156	          0.00000000	         -0.00000042	        -22.19914929	        424.17504341	        -22.25774633	          0.56732036	          0.00000000	          0.06018502	          0.00000000	         -0.00004723	          0.00000000	          0.00000000	          0.91080564	          0.00000000	
          1.60400000	         -0.00114887	         -0.00683488	          0.00047097	         -0.00001942	          0.00000000	         -0.00000026	        -21.84025935	        423.96259333	        -22.00061316	          0.56758400	          0.00000000	          0.06014618	          0.00000000	         -0.00004422	          0.00000000	          0.00000000	          0.85621546	          0.00000000	
          1.60500000	         -0.00158768	         -0.00784742	          0.00055695	         -0.00001739	          0.00000000	         -0.00000010	        -21.47659175	        423.77263046	        -21.75138858	          0.56783356	          0.00000000	          0.06010791	          0.00000000	         -0.00004131	          0.00000000	          0.00000000	          0.80089335	          0.00000000	
          1.60600000	         -0.00198317	         -0.00874422	          0.00063352	         -0.00001547	          0.00000000	          0.00000004	        -21.10828235	        423.60389394	        -21.51019222	          0.56806955	          0.00000000	          0.06007028	          0.00000000	         -0.00003849	          0.00000000	          0.00000000	          0.74483567	          0.00000000	
          1.60700000	         -0.00233755	         -0.00953172	          0.00070119	         -0.00001365	          0.00000000	          0.00000017	        -20.73547795	        423.45519127	        -21.27713836	          0.56829252	          0.00000000	          0.06003335	          0.00000000	         -0.00003576	          0.00000000	          0.00000000	          0.68804132	          0.00000000	
          1.60800000	         -0.00265296	         -0.01021625	          0.00076045	         -0.00001194	          0.00000000	          0.00000029	        -20.35833523	        423.32540098	        -21.05233564	          0.56850299	          0.00000000	          0.05999716	          0.00000000	         -0.00003313	          0.00000000	          0.00000000	          0.63051172	          0.00000000	
          1.60900000	         -0.00293153	         -0.01080397	          0.00081180	         -0.00001033	          0.00000000	          0.00000040	        -19.97701948	        423.21347542	        -20.83588639	          0.56870150	          0.00000000	          0.05996177	          0.00000000	         -0.00003059	          0.00000000	          0.00000000	          0.57225070	          0.00000000	
          1.61000000	         -0.00317533	         -0.01130090	          0.00085571	         -0.00000881	          0.00000000	          0.00000049	        -19.59170303	        423.11844245	        -20.62788554	          0.56888860	          0.00000000	          0.05992724	          0.00000000	         -0.00002816	          0.00000000	          0.00000000	          0.51326428	          0.00000000	
